<svg xmlns="http://www.w3.org/2000/svg" viewBox="0 11.449999809265137 28.3700008392334 33.11000061035156" data-asc="0.89111328125"><g fill="#2e186a"><g fill="#2e186a" transform="translate(0, 0)"><path d="M9.42 13.26L9.42 26.34L16.70 26.34Q19.53 26.34 20.48 25.49Q21.75 24.37 21.90 21.53L22.80 21.53L22.80 33.06L21.90 33.06Q21.56 30.64 21.22 29.96Q20.78 29.10 19.78 28.61Q18.77 28.13 16.70 28.13L9.42 28.13L9.42 39.04Q9.42 41.24 9.62 41.71Q9.81 42.19 10.30 42.47Q10.79 42.75 12.16 42.75L17.77 42.75Q20.58 42.75 21.85 42.36Q23.12 41.97 24.29 40.82Q25.81 39.31 27.39 36.25L28.37 36.25L25.51 44.56L0 44.56L0 43.65L1.17 43.65Q2.34 43.65 3.39 43.09Q4.17 42.70 4.46 41.92Q4.74 41.14 4.74 38.72L4.74 17.21Q4.74 14.06 4.10 13.33Q3.22 12.35 1.17 12.35L0 12.35L0 11.45L25.51 11.45L25.88 18.70L24.93 18.70Q24.41 16.09 23.79 15.11Q23.17 14.14 21.95 13.62Q20.97 13.26 18.51 13.26L9.42 13.26Z"/></g></g></svg>